<svg width="96" height="24" viewBox="0 0 96 24" fill="none" xmlns="http://www.w3.org/2000/svg">
<g clip-path="url(#clip0_2394_8479)">
<path fill-rule="evenodd" clip-rule="evenodd" d="M91.5241 15.8617C91.5241 18.913 90.6121 20.2739 88.5666 20.2739C86.5529 20.2739 85.6555 18.913 85.6555 15.8617V8.11901C85.6555 5.06732 86.5529 3.70655 88.5666 3.70655C90.64 3.70655 91.5241 5.02665 91.5241 8.11901V15.8617ZM88.6131 0C86.4257 0 84.6099 0.635287 83.3608 1.83768C82.0089 3.23849 81.5742 4.83405 81.5742 8.39998V15.5808C81.5742 19.1476 82.0089 20.7432 83.3641 22.1461C84.6099 23.3454 86.4257 23.9804 88.6131 23.9804C90.7696 23.9804 92.5695 23.3454 93.8186 22.1427C95.1873 20.774 95.6055 19.2408 95.6055 15.5808V8.39998C95.6055 4.74111 95.1873 3.20762 93.8168 1.83555C92.5695 0.635287 90.7696 0 88.6131 0Z" fill="#0A0B09"/>
<path fill-rule="evenodd" clip-rule="evenodd" d="M7.17832 0C4.56288 0 2.57355 0.824223 1.42619 2.3831C0.37298 3.80163 0 5.43816 0 8.63446V15.3925C0 18.5548 0.37298 20.1791 1.42619 21.5985C2.57355 23.1574 4.56288 23.9804 7.17832 23.9804C9.52289 23.9804 11.3505 23.2703 12.6119 21.8685C13.7528 20.6358 14.2175 19.0182 14.2175 16.2842V15.5343H10.1359V16.0497C10.1359 18.9321 9.19668 20.2739 7.17832 20.2739C6.04654 20.2739 5.10492 19.7716 4.66009 18.9321C4.22659 18.1121 4.08045 17.0763 4.08045 14.8305V9.1979C4.08045 5.04072 4.83284 3.70655 7.17832 3.70655C9.19668 3.70655 10.1359 5.00434 10.1359 7.79037V8.44645H14.2175V7.55557C14.2175 4.85392 13.7672 3.31492 12.6131 2.06698C11.3783 0.694902 9.55071 0 7.17832 0Z" fill="#0A0B09"/>
<path fill-rule="evenodd" clip-rule="evenodd" d="M67.8538 7.60235C67.8538 4.77199 68.752 3.56501 70.8579 3.56501C72.8912 3.56501 73.7864 4.68333 73.8506 7.30703L73.853 7.39324L73.7766 7.4342L67.8538 10.6736V7.60235ZM73.7176 18.1995C73.3226 19.5772 72.3923 20.2739 70.952 20.2739C69.114 20.2739 68.2831 19.4332 67.9878 17.2735C67.8948 16.5963 67.8563 15.1314 67.8538 15.0696L67.8518 14.9831L67.9278 14.9424L77.9445 9.5021V8.86895C77.9445 5.3119 77.5027 3.60567 76.1963 2.10977C74.9991 0.729143 73.137 0 70.8114 0C68.6549 0 66.8548 0.635287 65.6065 1.83768C64.1839 3.21526 63.7722 4.687 63.7722 8.39998V15.346C63.7722 18.3964 64.173 20.15 65.2005 21.6007C66.3458 23.1574 68.3351 23.9804 70.952 23.9804C73.8882 23.9804 76.0202 22.9184 77.1169 20.9104C77.7785 19.8061 77.939 18.6829 77.9885 15.5343H73.9093C73.9071 17.0666 73.8594 17.6762 73.7176 18.1995Z" fill="#0A0B09"/>
<path fill-rule="evenodd" clip-rule="evenodd" d="M53.0366 0.00122279L52.9412 0L52.9226 0.00122279C50.8171 0.0210946 49.1543 0.56864 47.9791 1.6298L47.8837 1.7151L47.7887 1.6298C46.6138 0.56864 44.951 0.0210946 42.8464 0.00122279L42.75 0L42.7314 0.00122279C40.1701 0.0256805 38.2205 0.84654 37.0952 2.37759C36.0685 3.82609 35.6677 5.5797 35.6677 8.63018V23.5071H39.7485V8.90991C39.7506 8.84357 39.7904 7.37886 39.8836 6.70262C40.1756 4.56502 40.99 3.72429 42.788 3.70533C44.589 3.72429 45.4031 4.56502 45.6954 6.70262C45.7871 7.37979 45.8271 8.84357 45.8292 8.90655V23.5071H49.9397V8.90991C49.9418 8.8448 49.9806 7.37979 50.0736 6.70262C50.3659 4.56502 51.18 3.72429 52.978 3.70533C54.7789 3.72429 55.5934 4.56502 55.8853 6.70262C55.9786 7.37979 56.0171 8.8448 56.0196 8.90655V23.5071H60.0997V8.63018C60.0997 5.57848 59.6995 3.82487 58.6726 2.37544C57.5476 0.84654 55.5979 0.0256805 53.0366 0.00122279Z" fill="#0A0B09"/>
<path fill-rule="evenodd" clip-rule="evenodd" d="M27.9037 16.3783C27.9037 19.2087 27.0054 20.4157 24.8999 20.4157C22.8663 20.4157 21.9711 19.297 21.9069 16.6737L21.9048 16.5875L21.9809 16.5466L27.9037 13.3068V16.3783ZM24.8058 0C21.8693 0 19.7373 1.06207 18.6409 3.07035C17.9794 4.17461 17.8188 5.29752 17.769 8.44645H21.8482C21.8507 6.91417 21.8981 6.30457 22.0397 5.78117C22.4346 4.40359 23.3652 3.70655 24.8058 3.70655C26.6435 3.70655 27.4744 4.54759 27.7697 6.7072C27.863 7.38437 27.9014 8.84908 27.9037 8.91114L27.9061 8.99736L27.8297 9.03832L17.8133 14.4786V15.1114C17.8133 18.6689 18.2545 20.3747 19.5614 21.8706C20.7584 23.2512 22.6205 23.9804 24.9464 23.9804C27.1026 23.9804 28.9031 23.3454 30.151 22.1427C31.5738 20.7651 31.9856 19.2937 31.9856 15.5808V8.63446C31.9856 5.58429 31.5848 3.83038 30.557 2.38003C29.4117 0.823305 27.4224 0 24.8058 0Z" fill="#0A0B09"/>
</g>
<defs>
<clipPath id="clip0_2394_8479">
<rect width="95.6522" height="24" fill="white"/>
</clipPath>
</defs>
</svg>
