<svg width="102" height="28" viewBox="0 0 102 28" fill="none" xmlns="http://www.w3.org/2000/svg">
<g clip-path="url(#clip0_2394_8495)">
<path d="M9.4729 0.00146617C5.86412 0.00146617 2.9441 2.34912 2.9441 5.69908C2.9441 7.87059 4.34837 8.79284 6.13245 9.29446C6.70243 9.45476 6.70243 10.172 6.13245 10.3323C4.45648 10.8036 2.93712 11.6953 2.93712 13.5249L2.93705 24.4203C2.93705 25.8873 2.32162 26.4132 0.649613 26.643C0.451598 26.6701 0.300659 26.8366 0.300659 27.0363V27.283C0.300659 27.4987 0.475685 27.672 0.691583 27.672H9.11912C9.33507 27.672 9.51007 27.4972 9.51007 27.2815V27.0371C9.51007 26.8365 9.3574 26.6694 9.15825 26.6439C7.36989 26.4155 6.75011 25.891 6.75011 24.4189C6.75011 22.4458 6.75025 16.2663 6.75041 12.9314C6.75048 11.351 9.36909 10.518 10.3914 10.3445C11.0424 10.234 11.0424 9.30006 10.3914 9.1896C7.45263 8.69092 5.62421 6.75538 5.62421 4.57589C5.87741 2.05476 7.22093 1.32956 8.70395 1.32956C10.8021 1.32956 11.5452 3.57349 11.8692 4.5523C11.8887 4.61119 11.9067 4.66551 11.9234 4.71447C12.0959 5.09657 12.5248 5.56131 12.9807 5.56131H13.7942C14.7417 5.56131 15.7303 5.06496 15.7303 3.78843C15.7303 1.90571 13.6548 0.0227782 10.232 0L9.4729 0.00146617Z" fill="#1C3F28"/>
<path fill-rule="evenodd" clip-rule="evenodd" d="M98.2125 2.01565V24.582C98.2125 25.8764 98.811 26.4316 100.431 26.0852C100.642 26.0401 100.849 26.1955 100.849 26.4113V26.7907C100.849 26.9026 100.791 27.0073 100.695 27.0649C99.5208 27.7695 98.461 27.9588 97.5531 27.9588C95.6169 27.9588 94.5046 27.094 94.5046 24.7879C92.7336 26.9704 90.4677 27.9999 87.996 27.9999C83.5055 27.9999 79.8396 24.4173 79.8396 18.6933C79.8396 12.3517 84.1649 8.81026 88.8199 8.81026C90.5538 8.81026 91.8467 9.28122 92.7581 9.61302C93.9684 10.0539 94.5046 10.2492 94.5046 8.7691V5.06294C94.5046 3.3548 94.0657 2.05067 92.1855 2.14632C91.9937 2.1561 91.8271 2.00637 91.8271 1.81387V1.49027C91.8271 1.33598 91.9349 1.20274 92.0861 1.17076L96.6879 0.780273C97.6238 0.780273 98.2125 1.02735 98.2125 2.01565ZM83.6707 17.0462C83.6707 21.823 86.1837 25.5704 90.0148 25.5704C91.951 25.5704 94.5046 24.582 94.5046 21.2877V16.0167C94.5046 11.8987 91.2503 10.0868 88.6554 10.0868C85.483 10.0868 83.6707 12.8871 83.6707 17.0462Z" fill="#1C3F28"/>
<path fill-rule="evenodd" clip-rule="evenodd" d="M22.4978 28.0002C27.6059 28.0002 32.2609 24.4176 32.2609 18.3642C32.2609 12.352 27.647 8.81055 22.5802 8.81055C17.472 8.81055 12.8583 12.3931 12.8583 18.4465C12.8583 24.4588 17.4308 28.0002 22.4978 28.0002ZM23.4452 26.7648C19.573 26.7648 16.7717 22.2762 16.7717 17.0465C16.7717 12.2697 18.8314 10.0459 21.6739 10.0459C25.505 10.0459 28.3474 14.4934 28.3474 19.7643C28.3474 24.5412 26.2465 26.7648 23.4452 26.7648Z" fill="#1C3F28"/>
<path d="M48.1963 25.2408C47.5784 25.9409 45.7246 27.9998 42.2231 27.9998C39.1335 27.9998 36.2087 26.188 36.2087 21.1641V13.2164C36.2087 11.4694 36.1603 10.2079 34.2807 10.3034C34.0884 10.3132 33.922 10.1635 33.922 9.97098V9.64737C33.922 9.49309 34.03 9.35981 34.181 9.32782L38.3971 8.93736C39.3263 8.93736 39.9162 9.13959 39.9162 10.1279V20.2581C39.9162 23.4289 41.4816 25.6938 44.3652 25.6938C47.2488 25.6938 49.1438 23.3054 49.1438 20.2581V13.2164C49.1438 11.4674 49.131 10.2058 47.2153 10.3034C47.0232 10.3132 46.8571 10.1635 46.8571 9.97126V9.64702C46.8571 9.49274 46.9651 9.35946 47.1161 9.32747L51.3956 8.93701C52.3437 8.93701 52.8513 9.13959 52.8513 10.1279V24.6231C52.8513 25.8753 53.4114 26.4358 54.5022 26.3046C54.7123 26.2793 54.911 26.4328 54.911 26.6444V27.0093C54.911 27.1141 54.8612 27.2136 54.7728 27.27C54.0359 27.7405 53.0001 27.9587 52.1097 27.9587C50.3384 27.9587 49.3497 26.9703 49.1025 25.4879C49.0614 25.1585 48.979 24.9114 48.6907 24.9114C48.5162 24.9114 48.4303 25.0001 48.283 25.1523L48.2563 25.1798C48.2489 25.1874 48.2413 25.1953 48.2335 25.2033C48.2266 25.2103 48.2196 25.2173 48.2124 25.2246L48.2045 25.2326L48.1963 25.2408Z" fill="#1C3F28"/>
<path d="M74.1976 27.6598C75.3939 28.1377 77.1285 28.0002 78.5103 27.2476C78.6013 27.198 78.6559 27.1014 78.6559 26.9976V26.5506C78.6559 26.36 78.4767 26.2217 78.2884 26.2517C77.1845 26.427 76.5118 25.99 76.5118 24.2511V15.1843C76.5118 10.0686 73.5557 8.28027 70.433 8.28027C67.2211 8.28027 65.5941 10.0502 64.8092 10.904C64.7711 10.9455 64.7351 10.9847 64.7008 11.0215C64.6142 11.1148 64.5328 11.2043 64.4544 11.2906L64.4542 11.2909L64.453 11.2922C64.3613 11.3931 64.2736 11.4895 64.1864 11.582C63.8993 11.814 63.5872 11.582 63.52 11.0915C63.4441 10.5369 63.242 10.144 63.0411 9.84449C61.6322 7.74351 58.2843 8.93176 57.7041 9.26426C57.5377 9.3596 57.4671 9.45529 57.4671 9.61111V9.93801C57.4671 10.1324 57.6292 10.3108 57.8236 10.3009C59.4947 10.2457 59.6901 10.966 59.6901 12.7305V24.4567C59.6901 25.9549 59.0541 26.4813 57.3209 26.7092C57.1535 26.7312 57.0253 26.8721 57.0253 27.0408V27.4125C57.0253 27.5947 57.1731 27.7424 57.3555 27.7424H65.7722C65.9545 27.7424 66.1024 27.5947 66.1024 27.4125V27.0408C66.1024 26.8721 65.9741 26.7312 65.8068 26.7092C64.0736 26.4813 63.4375 25.9549 63.4375 24.4567V16.4858C63.4375 13.4081 65.3529 10.9959 68.2676 10.9959C71.224 10.9959 72.7647 13.325 72.7647 16.4858V24.6911C72.7647 26.0106 73.1721 27.2499 74.1976 27.6598Z" fill="#1C3F28"/>
</g>
<defs>
<clipPath id="clip0_2394_8495">
<rect width="100.8" height="28" fill="white" transform="translate(0.300659)"/>
</clipPath>
</defs>
</svg>
