<svg width="289" height="30" viewBox="0 0 289 30" fill="none" xmlns="http://www.w3.org/2000/svg">
<g clip-path="url(#clip0_2394_8530)">
<path d="M71.3894 14.9366H78.1749V15.3268C78.1923 17.1588 77.6475 18.952 76.614 20.4647C75.9135 21.4028 74.9976 22.1587 73.9437 22.6687C72.8898 23.1787 71.7287 23.4278 70.5584 23.3949C69.4451 23.4175 68.3388 23.2152 67.3056 22.8002C66.2724 22.3852 65.3335 21.766 64.5452 20.9797C63.7568 20.1934 63.1352 19.2561 62.7176 18.2239C62.2999 17.1918 62.0948 16.086 62.1145 14.9727C62.1145 10.2359 65.7493 6.55049 70.609 6.55049C72.4033 6.5272 74.1545 7.10037 75.5879 8.18002C76.3 8.73473 76.9333 9.38384 77.4703 10.1094L76.1262 11.3307C75.6947 10.6958 75.1793 10.1222 74.5943 9.62527C73.4765 8.70861 72.0647 8.22735 70.6198 8.27034C66.6887 8.27034 63.9536 11.2259 63.9536 15.0089C63.9536 19.453 67.4944 21.6968 70.5692 21.6968C71.567 21.7202 72.5533 21.4796 73.4283 20.9993C74.3032 20.519 75.0358 19.816 75.5517 18.9616C75.9505 18.2523 76.1758 17.4587 76.2093 16.6456H71.3894V14.9366Z" fill="#131414"/>
<path d="M90.4686 6.82812V21.4035H94.9597V23.1125H88.662V6.82812H90.4686Z" fill="#131414"/>
<path d="M102.75 14.9842C102.75 10.1282 106.533 6.56201 111.219 6.56201C115.905 6.56201 119.692 10.1282 119.692 14.9842C119.646 17.2006 118.734 19.3107 117.15 20.862C115.566 22.4133 113.438 23.2821 111.221 23.2821C109.004 23.2821 106.876 22.4133 105.292 20.862C103.708 19.3107 102.796 17.2006 102.75 14.9842ZM104.603 14.9842C104.623 16.2884 105.027 17.5577 105.765 18.6327C106.504 19.7078 107.544 20.5405 108.754 21.0263C109.965 21.5121 111.292 21.6293 112.569 21.3631C113.845 21.0969 115.015 20.4593 115.93 19.5303C116.846 18.6013 117.466 17.4224 117.714 16.1419C117.961 14.8613 117.825 13.5361 117.321 12.333C116.818 11.1298 115.97 10.1023 114.884 9.37955C113.798 8.65683 112.523 8.27116 111.219 8.27102C110.343 8.27478 109.477 8.45171 108.669 8.79162C107.862 9.13153 107.13 9.6277 106.515 10.2516C105.9 10.8755 105.415 11.6148 105.087 12.4271C104.759 13.2393 104.594 14.1083 104.603 14.9842Z" fill="#131414"/>
<path d="M137.061 10.0515C136.827 9.58735 136.504 9.17367 136.111 8.83384C135.581 8.44516 134.936 8.24657 134.279 8.27019C132.668 8.27019 131.544 9.27103 131.544 10.7994C131.527 11.0669 131.574 11.3346 131.68 11.5807C131.786 11.8268 131.949 12.0444 132.155 12.2157C132.652 12.6591 133.228 13.0058 133.853 13.2383L135.414 13.9211C136.346 14.2691 137.204 14.7901 137.943 15.4567C138.334 15.8401 138.641 16.3012 138.843 16.8102C139.045 17.3192 139.139 17.865 139.117 18.4123C139.117 21.4148 136.895 23.4165 133.965 23.4165C133.316 23.444 132.669 23.3415 132.061 23.115C131.453 22.8885 130.896 22.5426 130.424 22.0977C129.658 21.2955 129.133 20.2938 128.91 19.2072L130.67 18.7194C130.777 19.4935 131.117 20.2168 131.645 20.7933C131.952 21.0985 132.319 21.3364 132.723 21.492C133.126 21.6475 133.558 21.7172 133.99 21.6966C136.212 21.6966 137.242 20.1104 137.242 18.4737C137.256 18.1166 137.19 17.7609 137.051 17.4319C136.912 17.1028 136.702 16.8084 136.436 16.5696C135.849 16.0954 135.19 15.7162 134.485 15.4459L133.018 14.763C132.222 14.4481 131.488 13.9943 130.85 13.4225C130.478 13.0893 130.184 12.6776 129.99 12.2172C129.795 11.7567 129.706 11.259 129.727 10.7596C129.727 8.23045 131.656 6.56118 134.294 6.56118C135.219 6.52148 136.133 6.77433 136.906 7.28381C137.575 7.74617 138.12 8.36674 138.492 9.09038L137.061 10.0515Z" fill="#131414"/>
<path d="M156.769 10.0513C156.535 9.58596 156.211 9.172 155.815 8.83364C155.286 8.44496 154.64 8.24637 153.983 8.26999C152.376 8.26999 151.252 9.27083 151.252 10.7992C151.235 11.0667 151.281 11.3344 151.388 11.5805C151.494 11.8266 151.656 12.0442 151.863 12.2155C152.363 12.6613 152.943 13.0094 153.572 13.2417L155.132 13.9246C156.064 14.2736 156.922 14.7945 157.662 15.4601C158.052 15.8437 158.358 16.3049 158.56 16.8139C158.762 17.323 158.854 17.8686 158.832 18.4157C158.832 21.4182 156.61 23.4199 153.684 23.4199C153.035 23.4478 152.388 23.3455 151.78 23.119C151.171 22.8925 150.615 22.5464 150.143 22.1011C149.377 21.2989 148.852 20.2972 148.629 19.2106L150.385 18.7228C150.492 19.4978 150.834 20.2214 151.364 20.7967C151.67 21.1016 152.036 21.3394 152.439 21.495C152.843 21.6505 153.274 21.7203 153.705 21.7C155.927 21.7 156.979 20.1139 156.979 18.4771C156.992 18.12 156.927 17.7644 156.788 17.4353C156.649 17.1062 156.439 16.8118 156.173 16.573C155.584 16.099 154.924 15.7199 154.218 15.4493L152.755 14.7664C151.958 14.4532 151.224 13.9992 150.587 13.4259C150.215 13.0927 149.921 12.681 149.726 12.2206C149.532 11.7601 149.442 11.2624 149.463 10.7631C149.463 8.23387 151.389 6.5646 154.027 6.5646C154.952 6.5249 155.866 6.77775 156.639 7.28723C157.31 7.74753 157.856 8.36862 158.225 9.0938L156.769 10.0513Z" fill="#131414"/>
<path d="M182.657 15.3016H189.49C189.49 16.7902 189.172 18.94 187.828 20.6491C186.382 22.4773 184.193 23.3806 181.703 23.3806C176.916 23.3806 173.281 19.865 173.281 15.0089C173.281 10.1529 177.039 6.61199 181.776 6.61199C183.63 6.58032 185.436 7.20196 186.877 8.368C187.629 8.94929 188.288 9.64125 188.832 10.4203L187.976 11.1031C187.555 10.4214 187.028 9.81144 186.415 9.29658C185.107 8.20033 183.457 7.59578 181.75 7.58755C177.577 7.58755 174.405 10.908 174.405 15.0559C174.405 19.1352 177.48 22.405 181.678 22.405C184.46 22.405 186.462 20.9887 187.34 19.6482C187.972 18.6303 188.344 17.4727 188.424 16.2771H182.657V15.3016Z" fill="#131414"/>
<path d="M207.782 7.81812H201.058V13.7256H207.649V14.6831H201.058V22.1298H207.793V23.1053H199.974V6.82812H207.786L207.782 7.81812Z" fill="#131414"/>
<path d="M218.01 23.1125V6.6582L231.682 20.9626V6.82803H232.766V23.528L219.094 9.22355V23.1125H218.01Z" fill="#131414"/>
<path d="M245.451 6.82812V23.1125H244.367V6.82812H245.451Z" fill="#131414"/>
<path d="M258.089 6.82812V17.0099C258.089 18.5491 258.161 19.5391 258.772 20.5255C259.722 22.0611 261.507 22.4044 262.555 22.4044C263.603 22.4044 265.388 22.043 266.338 20.5255C266.949 19.55 267.024 18.5491 267.024 17.0099V6.82812H268.108V17.0099C268.108 18.7912 268.011 19.9619 267.18 21.1831C265.959 22.9644 264.033 23.3799 262.566 23.3799C261.099 23.3799 259.173 22.9644 257.952 21.1831C257.124 19.9619 257.023 18.7912 257.023 17.0099V6.82812H258.089Z" fill="#131414"/>
<path d="M286.25 9.58967C285.967 8.98362 285.514 8.47234 284.947 8.11727C284.379 7.7622 283.722 7.57841 283.053 7.58798C282.65 7.56886 282.248 7.63413 281.872 7.77957C281.496 7.92502 281.155 8.14744 280.87 8.43256C280.586 8.71767 280.364 9.05919 280.219 9.43517C280.074 9.81115 280.009 10.2133 280.028 10.6158C280.028 12.3718 281.246 12.9571 282.883 13.7628C284.52 14.5686 285.3 14.8865 286.135 15.4719C286.675 15.7978 287.12 16.2609 287.424 16.8143C287.728 17.3676 287.88 17.9914 287.865 18.6225C287.865 21.3577 285.571 23.381 282.807 23.381C282.087 23.4086 281.371 23.2686 280.714 22.972C280.058 22.6755 279.479 22.2304 279.024 21.672C278.561 21.1525 278.203 20.5474 277.973 19.8907L278.901 19.4535C279.11 20.0167 279.406 20.5435 279.779 21.0144C280.153 21.458 280.621 21.8128 281.149 22.0534C281.677 22.294 282.252 22.4142 282.832 22.4055C285.029 22.4055 286.763 20.794 286.763 18.6478C286.763 17.7662 286.402 16.8412 285.174 16.0825C284.711 15.8151 283.761 15.3273 282.417 14.6661C280.805 13.8857 279.999 13.4449 279.439 12.5199C279.097 11.9614 278.919 11.3177 278.926 10.6628C278.926 8.78393 280.195 6.61243 283.1 6.61243C283.912 6.5905 284.715 6.79607 285.417 7.20591C286.12 7.61576 286.693 8.21361 287.074 8.93208L286.25 9.58967Z" fill="#131414"/>
<path fill-rule="evenodd" clip-rule="evenodd" d="M0.661987 5.76923C0.661987 2.58297 3.24496 0 6.43122 0H28.9837C29.8527 0 30.5571 0.704447 30.5571 1.57343C30.5571 2.44241 29.8527 3.14685 28.9837 3.14685H6.43122C4.98292 3.14685 3.80884 4.32093 3.80884 5.76923V24.2308C3.80884 25.6791 4.98292 26.8531 6.43122 26.8531H24.8928C26.3411 26.8531 27.5151 25.6791 27.5151 24.2308V15C27.5151 14.131 28.2196 13.4266 29.0886 13.4266C29.9576 13.4266 30.662 14.131 30.662 15V24.2308C30.662 27.417 28.079 30 24.8928 30H6.43122C3.24496 30 0.661987 27.417 0.661987 24.2308V5.76923Z" fill="url(#paint0_radial_2394_8530)"/>
<path fill-rule="evenodd" clip-rule="evenodd" d="M0.661987 5.76923C0.661987 2.58297 3.24496 0 6.43122 0H28.9837C29.8527 0 30.5571 0.704447 30.5571 1.57343C30.5571 2.44241 29.8527 3.14685 28.9837 3.14685H6.43122C4.98292 3.14685 3.80884 4.32093 3.80884 5.76923V24.2308C3.80884 25.6791 4.98292 26.8531 6.43122 26.8531H24.8928C26.3411 26.8531 27.5151 25.6791 27.5151 24.2308V15C27.5151 14.131 28.2196 13.4266 29.0886 13.4266C29.9576 13.4266 30.662 14.131 30.662 15V24.2308C30.662 27.417 28.079 30 24.8928 30H6.43122C3.24496 30 0.661987 27.417 0.661987 24.2308V5.76923Z" fill="url(#paint1_radial_2394_8530)"/>
<path fill-rule="evenodd" clip-rule="evenodd" d="M49.5383 3.14685H28.3495V0H49.5383V3.14685Z" fill="url(#paint2_linear_2394_8530)"/>
</g>
<defs>
<radialGradient id="paint0_radial_2394_8530" cx="0" cy="0" r="1" gradientUnits="userSpaceOnUse" gradientTransform="translate(31.1865 24.1259) rotate(-143.011) scale(20.2238 27.9657)">
<stop stop-color="#FE7340"/>
<stop offset="1" stop-color="#EB4F87"/>
</radialGradient>
<radialGradient id="paint1_radial_2394_8530" cx="0" cy="0" r="1" gradientUnits="userSpaceOnUse" gradientTransform="translate(28.0396 0.419576) rotate(157.286) scale(29.3384 40.5695)">
<stop stop-color="#FCCE74"/>
<stop offset="1" stop-color="#FCCE74" stop-opacity="0"/>
</radialGradient>
<linearGradient id="paint2_linear_2394_8530" x1="33.1747" y1="3.14702" x2="42.3006" y2="3.14702" gradientUnits="userSpaceOnUse">
<stop stop-color="#FCCD75"/>
<stop offset="1" stop-color="#FBB77A" stop-opacity="0"/>
</linearGradient>
<clipPath id="clip0_2394_8530">
<rect width="288" height="30" fill="white" transform="translate(0.661987)"/>
</clipPath>
</defs>
</svg>
