<svg width="174" height="24" viewBox="0 0 174 24" fill="none" xmlns="http://www.w3.org/2000/svg">
<g clip-path="url(#clip0_2394_8485)">
<path d="M13.2031 8.83777C13.2031 6.718 11.7684 4.89181 9.5517 4.89181H5.93326V12.7826H9.5517C11.7684 12.7826 13.2031 10.9575 13.2031 8.83777ZM0.652222 0.587721H10.2034C15.2566 0.587721 18.517 4.4033 18.517 8.83777C18.517 13.2722 15.2566 17.0866 10.2034 17.0866H5.93326V23.4131H0.652222V0.587721Z" fill="#FF424D"/>
<path d="M33.8058 7.10907L31.0021 16.5006H36.5437L33.8058 7.10907ZM38.7287 23.4131L37.8493 20.6415H29.7317L28.8512 23.4131H23.2109L31.3614 0.587721H36.2185L44.4665 23.4131H38.7287Z" fill="#FF424D"/>
<path d="M53.3331 5.15257H48.1836V0.587721H63.7977V5.15257H58.6141V23.4131H53.3331V5.15257Z" fill="#FF424D"/>
<path d="M84.5638 8.83777C84.5638 6.718 83.129 4.89181 80.9122 4.89181H77.2935V12.7826H80.9122C83.129 12.7826 84.5638 10.9575 84.5638 8.83777ZM72.0129 0.587721H81.5979C86.6501 0.587721 89.9104 4.4033 89.9104 8.83777C89.9104 12.0333 88.2149 14.8694 85.3783 16.207L89.9434 23.4131H83.8148L79.771 17.0866H77.2935V23.4131H72.0129V0.587721Z" fill="#FF424D"/>
<path d="M104.157 4.82719V10.011H112.795V14.153H104.157V19.1735H112.795V23.4131H98.8756V0.587721H112.795V4.82719H104.157Z" fill="#FF424D"/>
<path d="M140.147 12.0001C140.147 8.25032 137.603 4.76126 133.464 4.76126C129.291 4.76126 126.781 8.25032 126.781 12.0001C126.781 15.75 129.291 19.2391 133.464 19.2391C137.603 19.2391 140.147 15.75 140.147 12.0001ZM121.369 12.0001C121.369 5.73948 125.868 0.000270844 133.464 0.000270844C141.026 0.000270844 145.525 5.73948 145.525 12.0001C145.525 18.2608 141.026 24 133.464 24C125.868 24 121.369 18.2608 121.369 12.0001Z" fill="#FF424D"/>
<path d="M168.052 15.4566V0.587721H173.301V23.4131H167.792L159.576 8.73912V23.4131H154.294V0.587721H159.803L168.052 15.4566Z" fill="#FF424D"/>
</g>
<defs>
<clipPath id="clip0_2394_8485">
<rect width="172.648" height="24" fill="white" transform="translate(0.652222)"/>
</clipPath>
</defs>
</svg>
