<svg width="185" height="32" viewBox="0 0 185 32" fill="none" xmlns="http://www.w3.org/2000/svg">
<g clip-path="url(#clip0_2394_8501)">
<path d="M55.75 10.8315C55.567 10.9786 55.4207 11.1663 55.3227 11.3798C55.2247 11.5932 55.1778 11.8265 55.1856 12.0612C55.1827 12.3069 55.2451 12.549 55.3663 12.7628C55.4876 12.9765 55.6633 13.1542 55.8757 13.2778C56.8857 13.7739 57.9575 14.1327 59.0626 14.3445C60.4849 14.6365 61.8151 15.2693 62.9391 16.1884C63.4165 16.6498 63.7874 17.2099 64.0257 17.8296C64.264 18.4493 64.364 19.1136 64.3187 19.7761C64.3395 20.5071 64.1907 21.233 63.884 21.8969C63.5772 22.5608 63.1209 23.1447 62.5507 23.6027C61.2235 24.6304 59.5731 25.1509 57.8964 25.0708C55.0891 25.059 52.3973 23.9517 50.3944 21.9847L52.7281 19.1245C54.6183 20.7807 56.3664 21.6086 57.9724 21.6082C58.5724 21.6426 59.1671 21.4795 59.6657 21.1439C59.8629 21.001 60.0221 20.8119 60.1293 20.5932C60.2365 20.3745 60.2885 20.1328 60.2806 19.8893C60.2865 19.6419 60.2295 19.397 60.115 19.1776C60.0004 18.9582 59.8321 18.7714 59.6258 18.6347C58.8209 18.1833 57.948 17.8655 57.0413 17.6938C55.4279 17.397 53.8991 16.7504 52.5624 15.7995C51.6173 15.0216 51.1448 13.8006 51.1448 12.1365C51.1071 11.3969 51.2508 10.6593 51.5636 9.98794C51.8763 9.31662 52.3485 8.73197 52.9389 8.28499C54.2399 7.34825 55.8157 6.87136 57.4178 6.92956C58.6141 6.93405 59.8013 7.13763 60.9308 7.53198C62.0489 7.90401 63.0873 8.48261 63.9919 9.23773L62.0099 12.0985C60.675 11.0125 59.0158 10.4032 57.2953 10.3673C56.7416 10.3354 56.1945 10.4998 55.75 10.8315Z" fill="#58595B"/>
<path d="M78.5448 7.33105H82.4585V24.8698H78.5448V17.9696H71.5699V24.8698H67.6555V7.33105H71.5699V14.6576H78.5455L78.5448 7.33105Z" fill="#58595B"/>
<path d="M86.7744 7.33105H90.6888V24.8698H86.7744V7.33105Z" fill="#58595B"/>
<path d="M107.085 8.8993C108.315 9.94698 108.929 11.5528 108.929 13.7166C108.929 15.8805 108.298 17.4656 107.035 18.4718C105.772 19.4758 103.844 19.9778 101.251 19.9778H98.9182V24.8705H95.0038V7.33105H101.202C103.894 7.33105 105.856 7.8538 107.085 8.8993ZM104.212 15.7996C104.723 15.1432 104.973 14.3211 104.915 13.4914C104.955 13.0833 104.893 12.6714 104.733 12.2939C104.572 11.9163 104.32 11.585 103.998 11.3306C103.133 10.8408 102.142 10.6182 101.15 10.6908H98.9175V16.584H101.552C102.857 16.5875 103.744 16.3258 104.212 15.7989V15.7996Z" fill="#58595B"/>
<path d="M117.46 17.4174L120.571 7.3335H124.661L127.747 17.4174L131.235 7.3335H135.475L129.353 24.8723H126.442L122.603 12.678L118.789 24.8723H115.878L109.756 7.3335H113.996L117.46 17.4174Z" fill="#11A2DC"/>
<path d="M150.204 7.33105V10.8185H141.473V14.4317H149.326V17.7712H141.473V21.4092H150.48V24.8718H137.559V7.33105H150.204Z" fill="#11A2DC"/>
<path d="M153.967 24.8698V7.33105H157.881V21.3843H165.358V24.8718L153.967 24.8698Z" fill="#11A2DC"/>
<path d="M168.218 24.8698V7.33105H172.133V21.3843H179.61V24.8718L168.218 24.8698Z" fill="#11A2DC"/>
<path d="M9.37646 31.9998H20.2147L36.1263 19.7786L32.0914 18.6845C27.8857 17.3205 21.5983 14.5835 19.3359 9.93701C19.8612 13.9063 21.5586 17.6286 24.2109 20.6279L9.37646 31.9998Z" fill="#11A2DC"/>
<path d="M26.8491 0H16.0102L0.0986328 12.2212L4.13349 13.3153C8.33926 14.6793 14.6266 17.4163 16.8896 22.0628C16.3643 18.0935 14.667 14.3712 12.0147 11.3719L26.8491 0Z" fill="#006CA2"/>
<path d="M183.23 7.64716C183.591 7.85306 183.89 8.152 184.096 8.51281C184.303 8.88669 184.412 9.30732 184.412 9.73499C184.412 10.1627 184.303 10.5833 184.096 10.9572C183.889 11.3192 183.589 11.6192 183.227 11.8261C182.764 12.0884 182.228 12.1918 181.701 12.1203C181.174 12.0489 180.685 11.8065 180.309 11.4305C179.933 11.0544 179.691 10.5654 179.619 10.0384C179.548 9.51134 179.651 8.97544 179.913 8.51281C180.12 8.15132 180.42 7.85225 180.782 7.64716C181.157 7.43951 181.578 7.33057 182.007 7.33057C182.435 7.33057 182.856 7.43951 183.231 7.64716H183.23ZM183.085 11.5936C183.404 11.4093 183.668 11.1429 183.849 10.8223C184.033 10.4891 184.129 10.115 184.129 9.73466C184.129 9.35437 184.033 8.98025 183.849 8.64705C183.669 8.32689 183.405 8.06153 183.085 7.87897C182.755 7.6955 182.383 7.59923 182.005 7.59923C181.627 7.59923 181.255 7.6955 180.924 7.87897C180.604 8.0606 180.338 8.3261 180.156 8.64705C179.973 8.98023 179.877 9.35436 179.877 9.73466C179.877 10.115 179.973 10.4891 180.156 10.8223C180.338 11.1437 180.604 11.4102 180.924 11.5936C181.254 11.7795 181.626 11.8772 182.005 11.8772C182.383 11.8772 182.756 11.7795 183.085 11.5936ZM182.66 10.1688L183.127 10.9225H182.767L182.3 10.1688C182.262 10.0969 182.204 10.0367 182.135 9.99462C182.058 9.95781 181.974 9.94048 181.89 9.9442H181.552V10.9231H181.232V8.55537H182.188C182.399 8.54223 182.609 8.6062 182.777 8.73544C182.848 8.79843 182.904 8.87669 182.94 8.96435C182.977 9.052 182.993 9.14679 182.988 9.2416C182.996 9.4099 182.937 9.57464 182.825 9.69995C182.702 9.82272 182.539 9.8983 182.366 9.91342C182.493 9.95801 182.598 10.0493 182.66 10.1688ZM182.148 9.67377C182.286 9.68504 182.423 9.64824 182.537 9.56966C182.616 9.48076 182.66 9.36557 182.66 9.24618C182.66 9.12679 182.616 9.0116 182.537 8.92271C182.423 8.84417 182.286 8.80739 182.148 8.8186H181.552V9.67377H182.148Z" fill="#11A2DC"/>
</g>
<defs>
<clipPath id="clip0_2394_8501">
<rect width="184.311" height="32" fill="white" transform="translate(0.100586)"/>
</clipPath>
</defs>
</svg>
