<svg width="84" height="32" viewBox="0 0 84 32" fill="none" xmlns="http://www.w3.org/2000/svg">
<path fill-rule="evenodd" clip-rule="evenodd" d="M18.3283 30.1581V26.0204C18.3696 26.0269 18.4105 26.0358 18.4508 26.0473C19.5747 26.6694 20.8813 26.874 22.1409 26.6252C23.0405 26.4902 23.8957 26.1452 24.6379 25.6178C25.38 25.0905 25.9882 24.3956 26.4132 23.5892C27.1293 22.2705 27.4321 20.766 27.2821 19.2719C27.1477 17.6642 26.7596 16.1672 25.7116 14.8678C25.1207 14.1873 24.3501 13.6879 23.4886 13.4273C22.6271 13.1667 21.7098 13.1555 20.8422 13.3948C19.9677 13.6657 19.1853 14.1746 18.5821 14.8648C18.4879 14.9603 18.3882 15.0503 18.2835 15.1343L18.2119 15.0834L18.3253 13.2181H18.0477C17.6525 13.2646 17.2575 13.3114 16.8623 13.3581C15.6301 13.5037 14.3976 13.6494 13.1633 13.79C12.9782 13.8109 12.9304 13.8798 12.9961 14.0564C13.0442 14.0627 13.0921 14.0703 13.1398 14.0779C13.252 14.0957 13.3637 14.1133 13.4767 14.1133C14.5486 14.2061 14.7367 14.4097 14.7367 15.4936V30.1251C14.7366 30.3064 14.7247 30.4874 14.7009 30.667C14.6989 30.8042 14.6488 30.9361 14.5592 31.0397C14.4696 31.1433 14.3463 31.2117 14.2112 31.2329C14.1677 31.2408 14.1243 31.2487 14.0809 31.2566C13.7786 31.3119 13.4777 31.3669 13.1722 31.4035C12.9991 31.4245 12.9274 31.4754 12.9991 31.658H20.06C20.1197 31.4874 20.0779 31.4215 19.9017 31.4035C19.588 31.3777 19.276 31.3337 18.9672 31.2718C18.4955 31.179 18.3701 31.0233 18.3283 30.5383V30.1581ZM18.3203 20.8951C18.3243 20.4613 18.3283 20.027 18.3283 19.5923C18.3283 19.2965 18.3286 19.0018 18.3289 18.708C18.3299 17.6813 18.3309 16.6644 18.3194 15.6403C18.3126 15.5523 18.3306 15.4641 18.3713 15.3858C18.4118 15.3075 18.4735 15.2421 18.5493 15.1971C19.1882 14.76 19.857 14.4367 20.663 14.5295C21.0577 14.5786 21.4354 14.7195 21.7661 14.9409C22.0968 15.1624 22.3713 15.4582 22.5678 15.8049C23.0469 16.6272 23.3299 17.5494 23.3948 18.4995C23.6035 20.1772 23.5329 21.878 23.1859 23.5324C23.0552 24.2917 22.7484 25.0096 22.2902 25.6282C22.0703 25.9252 21.7752 26.1578 21.4355 26.3018C21.0957 26.4458 20.7237 26.4959 20.3581 26.447C19.9925 26.3981 19.6466 26.252 19.3564 26.0238C19.0661 25.7955 18.8421 25.4935 18.7075 25.1491C18.4876 24.6199 18.3594 24.057 18.3283 23.4845C18.3045 22.6248 18.3124 21.761 18.3203 20.8951Z" fill="#131F5A"/>
<path d="M60.4249 13.4724H66.3545C66.432 13.6491 66.3545 13.709 66.1843 13.7719C65.7133 13.8808 65.2525 14.0311 64.8077 14.221C64.4633 14.3992 64.1587 14.6456 63.9121 14.9455C63.0164 16.0173 62.1536 17.1192 61.2699 18.2209C61.2847 18.2593 61.3027 18.2963 61.3236 18.3317C62.9159 20.685 64.5081 23.0392 66.1005 25.3945C66.3302 25.7995 66.7085 26.099 67.1545 26.2298C67.2198 26.2448 67.2646 26.3436 67.3158 26.4035L67.271 26.4723H67.008C65.5481 26.4723 64.0883 26.4723 62.6283 26.4723C62.5461 26.4801 62.4635 26.4616 62.3922 26.4198C62.321 26.3779 62.2647 26.3146 62.2312 26.2388C61.2191 24.5322 60.204 22.8257 59.171 21.1311C58.9652 20.7991 58.715 20.4969 58.4276 20.2329C58.1734 20.0563 57.8987 19.9116 57.6096 19.8017C57.6096 19.9694 57.5917 20.0563 57.5917 20.1401V25.0592C57.5917 25.143 57.5917 25.2239 57.5917 25.3047C57.6125 25.7897 57.7559 25.9723 58.2246 26.0682C58.5232 26.131 58.8456 26.161 59.1591 26.2059C59.3352 26.2298 59.3352 26.2298 59.3054 26.4604H52.2475C52.1758 26.2747 52.2475 26.2209 52.4237 26.1999C52.752 26.164 53.0805 26.0981 53.4089 26.0472C53.5558 26.0282 53.6913 25.9576 53.7913 25.8481C53.8913 25.7384 53.9494 25.5969 53.9552 25.4484C53.9727 25.2874 53.9797 25.1253 53.9761 24.9634C53.9761 19.9035 53.9761 14.8457 53.9761 9.78988C53.9761 9.56531 53.9522 9.3408 53.9314 9.11622C53.9215 8.96064 53.8554 8.81401 53.7455 8.7038C53.6356 8.5936 53.4894 8.52729 53.3342 8.51744C53.0357 8.46355 52.7371 8.4366 52.4386 8.38272C52.3609 8.36774 52.2953 8.29286 52.2236 8.24499C52.2923 8.19411 52.355 8.10726 52.4296 8.0983C54.0398 7.89868 55.6491 7.70707 57.2573 7.52345C57.3558 7.52345 57.4543 7.52345 57.5827 7.52345V19.673C58.8695 19.7598 59.9891 19.5053 60.8071 18.4395C61.4311 17.6251 62.082 16.8287 62.6999 16.0054C63.4404 15.0144 63.0463 14.2599 61.9625 13.9515C61.516 13.8456 61.0617 13.7755 60.6041 13.7419C60.4249 13.721 60.3503 13.6731 60.4249 13.4724Z" fill="#131F5A"/>
<path d="M11.3959 13.5983C11.169 13.7001 11.1272 13.5654 11.0735 13.4036C10.7485 12.2741 10.2347 11.2081 9.55386 10.251C8.95674 9.46061 8.26106 8.75405 7.27885 8.45466C6.02488 8.07142 4.84558 8.21811 3.83944 9.11034C3.15575 9.70912 3.03931 10.5384 3.15873 11.3977C3.22829 11.8688 3.39747 12.3196 3.65492 12.7197C3.91238 13.1199 4.25217 13.4603 4.65152 13.718C5.73528 14.4605 6.88173 15.1103 8.0073 15.7869C8.89043 16.2767 9.71738 16.862 10.4734 17.5324C11.9661 18.9635 12.3961 20.7 11.8826 22.679C11.3153 24.8736 9.75085 26.0143 7.65798 26.5143C5.86665 26.9425 4.0753 26.7119 2.31979 26.2149C1.6692 26.0085 1.03034 25.7666 0.406038 25.4904C0.363755 25.4679 0.326883 25.4364 0.298003 25.3981C0.269123 25.3599 0.248932 25.3157 0.238845 25.2688C0.152264 23.7718 0.077625 22.2958 0 20.8078C0 20.8078 0 20.7748 0.0149279 20.742C0.203019 20.6611 0.256759 20.7748 0.292586 20.9306C0.503631 21.8858 0.857971 22.8034 1.34351 23.6521C2.17648 25.0443 3.28115 26.0952 4.94112 26.4035C6.32045 26.661 7.53856 26.3556 8.42227 25.206C9.30605 24.0563 9.22842 22.1192 8.32077 20.9784C7.75507 20.3086 7.06829 19.7519 6.29657 19.3377C5.17997 18.6911 4.04545 18.0773 2.9378 17.4216C2.158 16.9834 1.47536 16.3905 0.931501 15.6791C0.572315 15.2012 0.315558 14.6539 0.177351 14.0717C0.0391432 13.4895 0.0224704 12.8849 0.12838 12.2959C0.426937 10.4276 1.53757 9.2151 3.26024 8.54445C5.09935 7.82886 6.98323 7.89178 8.86419 8.3648C9.5568 8.53843 10.2226 8.82886 10.9004 9.0624C10.9779 9.08134 11.0462 9.12717 11.0932 9.19187C11.1402 9.25658 11.1629 9.33587 11.1571 9.41568C11.2138 10.5265 11.2825 11.6342 11.3452 12.742C11.3631 13.0294 11.381 13.3169 11.3959 13.5983Z" fill="#131F5A"/>
<path fill-rule="evenodd" clip-rule="evenodd" d="M40.984 25.2369C41.004 25.2152 41.0241 25.1933 41.0457 25.1729L40.9919 25.1011C40.9371 25.1279 40.8823 25.1548 40.8276 25.1818C40.6374 25.2753 40.4469 25.3691 40.2545 25.4574C39.6096 25.7508 39.0991 25.4664 39.0991 24.6969C39.115 22.0842 39.107 19.4744 39.0752 16.8676C39.0573 15.4934 38.3646 14.4815 37.1853 13.8287C36.2011 13.3232 35.0884 13.1251 33.9908 13.2599C32.5921 13.3234 31.2621 13.8862 30.2409 14.8467C29.6344 15.3793 29.1878 16.0708 28.9511 16.8437C28.7481 17.5622 28.972 18.1311 29.5483 18.4065C29.8051 18.5313 30.0868 18.5962 30.3723 18.5962C30.6577 18.5962 30.9394 18.5313 31.1963 18.4065C31.9099 18.0802 31.9934 17.4904 31.4202 16.9604C31.3337 16.8765 31.2403 16.7976 31.1463 16.7182C31.0359 16.625 30.9246 16.531 30.8231 16.4275C30.6127 16.2311 30.4861 15.9608 30.4693 15.6731C30.4526 15.3853 30.5473 15.1022 30.7335 14.8826C31.5814 13.7868 33.6206 13.6252 34.6148 14.5832C34.8857 14.8435 35.1025 15.1551 35.2526 15.4999C35.4028 15.8447 35.4833 16.216 35.4895 16.5922C35.5104 17.5203 35.5104 18.4515 35.5104 19.3826C35.5104 19.5473 35.4597 19.6221 35.2865 19.6401C35.1635 19.6532 35.0404 19.6659 34.9173 19.6786C34.395 19.7325 33.8725 19.7864 33.3579 19.8736C32.1669 20.0316 31.0247 20.4485 30.011 21.0952C28.9929 21.7837 28.4256 22.7089 28.5182 23.9724C28.5353 24.6267 28.7801 25.2544 29.2104 25.7466C29.6407 26.2387 30.2292 26.5644 30.8738 26.6669C31.4708 26.7731 32.0836 26.7477 32.6697 26.5926C33.2559 26.4375 33.8014 26.1564 34.2685 25.7688C34.5614 25.5453 34.8315 25.2918 35.1084 25.0321C35.2322 24.9159 35.3574 24.7985 35.4866 24.6819V24.9484C35.5223 25.8406 35.8836 26.4125 36.621 26.5891C37.048 26.6918 37.4893 26.7201 37.9257 26.673C39.0484 26.5442 39.9947 25.9963 40.8904 25.3286C40.9244 25.3017 40.9541 25.2694 40.984 25.2369ZM35.0109 19.9363C35.1613 19.9018 35.3138 19.8668 35.4686 19.8287C35.4728 19.8984 35.477 19.9532 35.4805 20C35.4846 20.0537 35.4879 20.0969 35.4895 20.1401V24.146C35.5027 24.23 35.4868 24.3158 35.4444 24.3894C35.402 24.463 35.3357 24.5197 35.2567 24.5502C34.855 24.7615 34.4328 24.9311 33.9968 25.0562C33.8122 25.1052 33.6195 25.1154 33.4308 25.0863C33.2421 25.0573 33.0614 24.9894 32.9 24.8872C32.7386 24.7849 32.6 24.6504 32.4928 24.4919C32.3856 24.3335 32.3122 24.1546 32.277 23.9664C32.0432 23.1722 32.0874 22.3217 32.4025 21.5562C32.5504 21.2298 32.768 20.94 33.0398 20.7073C33.3117 20.4744 33.6312 20.3043 33.9758 20.209C34.3098 20.0973 34.6541 20.0182 35.0109 19.9363Z" fill="#131F5A"/>
<path d="M49.1815 26.4575C49.1039 26.4575 49.0262 26.4575 48.9457 26.4575H41.8609C41.8161 26.4575 41.7654 26.4575 41.7295 26.4575C41.6751 26.427 41.6241 26.3908 41.5773 26.3497C41.625 26.2988 41.6698 26.218 41.7265 26.206C42.043 26.1461 42.3654 26.1072 42.6849 26.0503C42.7714 26.0484 42.8567 26.0292 42.9357 25.9939C43.0147 25.9585 43.0859 25.9076 43.1451 25.8444C43.2043 25.7811 43.2504 25.7066 43.2806 25.6253C43.3107 25.5439 43.3244 25.4574 43.3208 25.3707C43.3382 25.2096 43.3452 25.0476 43.3417 24.8856C43.3417 21.7599 43.3417 18.6342 43.3417 15.5085C43.3366 15.2385 43.3106 14.9692 43.2641 14.7031C43.2557 14.5937 43.2102 14.4904 43.1353 14.4104C43.0604 14.3304 42.9604 14.2784 42.8521 14.263C42.4998 14.1971 42.1445 14.1403 41.7922 14.0624C41.7146 14.0624 41.6489 13.9696 41.5802 13.9217C41.6489 13.8738 41.7176 13.796 41.7922 13.784C43.3845 13.5844 44.9768 13.3947 46.5691 13.2151C46.6766 13.2001 46.7841 13.2151 46.9334 13.1972C46.8945 14.1942 46.8557 15.1762 46.8169 16.1582L46.9035 16.1882C46.9662 16.1103 47.0319 16.0385 47.0886 15.9576C47.5215 15.3588 47.9186 14.76 48.3933 14.2031C48.8836 13.6495 49.5635 13.3011 50.2981 13.2271C50.6077 13.1739 50.926 13.2134 51.2132 13.3407C51.5005 13.468 51.7441 13.6774 51.9133 13.9427C52.0962 14.2031 52.2013 14.5104 52.2161 14.8286C52.2309 15.1468 52.1549 15.4627 51.9969 15.7391C51.6476 16.4187 51.1669 16.6792 50.5041 16.5354C50.2715 16.4723 50.0555 16.3588 49.8712 16.2031C49.6293 16.0175 49.4323 15.778 49.2054 15.5714C49.0671 15.4178 48.8767 15.3213 48.6714 15.3009C48.466 15.2804 48.2605 15.3373 48.0948 15.4606C47.7199 15.737 47.3629 16.037 47.0259 16.3588C46.9568 16.4426 46.9226 16.5498 46.9304 16.6582C46.9304 19.4925 46.9304 22.3278 46.9304 25.1641C46.9304 25.7629 47.1215 25.9814 47.7066 26.0623C48.1425 26.1252 48.5844 26.1641 49.0233 26.194C49.2113 26.221 49.2412 26.2928 49.1815 26.4575Z" fill="#131F5A"/>
<path d="M74.8871 0.122326C72.7975 4.8588 69.161 6.61626 67.7217 7.14618C67.682 7.16051 67.6474 7.18688 67.6225 7.22176C67.5981 7.25658 67.5853 7.29818 67.5853 7.3408C67.5853 7.38342 67.5981 7.42502 67.6225 7.4599C67.6474 7.49472 67.682 7.52109 67.7217 7.53542C69.1578 8.06534 72.7975 9.82285 74.8871 14.5593C74.9037 14.5957 74.93 14.6267 74.9632 14.6484C74.9965 14.6701 75.0356 14.6816 75.0752 14.6816C75.1149 14.6816 75.154 14.6701 75.1873 14.6484C75.2212 14.6267 75.2474 14.5957 75.2634 14.5593C77.3536 9.82285 80.9901 8.06534 82.4288 7.53542C82.4692 7.52109 82.5037 7.49472 82.528 7.4599C82.5524 7.42502 82.5658 7.38342 82.5658 7.3408C82.5658 7.29818 82.5524 7.25658 82.528 7.22176C82.5037 7.18688 82.4692 7.16051 82.4288 7.14618C80.9927 6.61626 77.3536 4.8588 75.2634 0.122326C75.2474 0.0859014 75.2212 0.0549663 75.1873 0.0332589C75.154 0.0115514 75.1149 0 75.0752 0C75.0356 0 74.9965 0.0115514 74.9632 0.0332589C74.93 0.0549663 74.9037 0.0859014 74.8871 0.122326Z" fill="#BA394B"/>
</svg>
