<svg width="160" height="40" viewBox="0 0 160 40" fill="none" xmlns="http://www.w3.org/2000/svg">
<path fill-rule="evenodd" clip-rule="evenodd" d="M93.5898 19.6408H91.8205V17.0254H93.5898V16.205C93.5898 15.4699 93.7137 14.7691 93.9616 14.1024C94.2095 13.4357 94.5684 12.8588 95.0385 12.3715C95.5085 11.8844 96.0812 11.4955 96.7564 11.2049C97.4317 10.9143 98.1966 10.769 99.0513 10.769C100.026 10.769 100.919 10.9272 101.731 11.2434C102.543 11.5596 103.308 11.9571 104.026 12.4357L102.667 14.9998C102.222 14.6066 101.701 14.2904 101.103 14.0511C100.504 13.8118 99.8975 13.6921 99.282 13.6921C98.5129 13.6921 97.9445 13.9314 97.577 14.41C97.2095 14.8887 97.0257 15.4443 97.0257 16.0767V17.0254H104.231V29.7434H100.795V19.6408H97.0257V29.7434H93.5898V19.6408ZM86.2306 11.0255V14.4358H89.6665V11.0255H86.2306ZM52.7947 25.3075L47.8717 11.5383H44.1538L51.3076 29.7434H54.2819L61.3845 11.5383H57.6666L52.7947 25.3075ZM64.2564 29.4484C65.1282 29.8159 66.1025 29.9997 67.1795 29.9997C68.6837 29.9997 69.9786 29.6706 71.064 29.0125C72.1496 28.3544 72.9402 27.5125 73.4358 26.4868L70.4871 25.6664C70.2649 26.2134 69.8504 26.6535 69.2436 26.9868C68.6368 27.3203 67.9915 27.4868 67.3077 27.4868C66.8632 27.4868 66.4358 27.4099 66.0256 27.2561C65.6153 27.1023 65.2478 26.88 64.923 26.5894C64.5983 26.2988 64.3333 25.9484 64.1282 25.5381C63.923 25.1279 63.7949 24.6578 63.7436 24.1279H74.1282C74.1624 23.9912 74.1837 23.8203 74.1923 23.6151C74.2009 23.4099 74.2051 23.1963 74.2051 22.974C74.2051 22.068 74.047 21.1963 73.7308 20.3587C73.4145 19.5211 72.953 18.786 72.3462 18.1535C71.7393 17.5211 71.0043 17.0168 70.141 16.6407C69.2777 16.2646 68.2991 16.0766 67.2051 16.0766C66.1111 16.0766 65.1239 16.2646 64.2436 16.6407C63.3632 17.0168 62.6153 17.5253 61.9999 18.1664C61.3846 18.8074 60.9145 19.551 60.5897 20.3971C60.2649 21.2433 60.1025 22.145 60.1025 23.1023C60.1025 24.0253 60.2692 24.9057 60.6025 25.7433C60.9358 26.5808 61.4102 27.3159 62.0256 27.9484C62.641 28.5808 63.3846 29.0808 64.2564 29.4484ZM70.6666 21.8973C70.5811 20.8887 70.2093 20.0811 69.5512 19.4743C68.8931 18.8673 68.0939 18.5639 67.1538 18.5639C66.6923 18.5639 66.2606 18.6452 65.8589 18.8075C65.4572 18.9699 65.1025 19.1964 64.7948 19.4871C64.4871 19.7777 64.235 20.128 64.0384 20.5383C63.8418 20.9486 63.7264 21.4015 63.6923 21.8973H70.6666ZM81.5127 19.8843C82.3333 19.4997 83.2649 19.2988 84.3077 19.2817V16.1534C84.2222 16.1364 84.1324 16.1279 84.0384 16.1279H83.6153C83.2564 16.1279 82.8845 16.2005 82.4999 16.3458C82.1153 16.4911 81.735 16.7005 81.3589 16.974C80.9829 17.2475 80.6324 17.568 80.3077 17.9355C79.9829 18.3031 79.7007 18.7175 79.4615 19.1791V16.3073H76.3077V29.7432H79.7436V21.6151C80.1025 20.8458 80.6923 20.2688 81.5127 19.8843ZM86.2306 29.7435V16.3077H89.6665V29.7435H86.2306ZM109.179 29.6792C109.743 29.8928 110.35 29.9997 111 29.9997C111.974 29.9997 112.889 29.7946 113.743 29.3844C114.598 28.974 115.325 28.3758 115.923 27.5894L116 28.3331C116.085 28.8117 116.303 29.1963 116.654 29.4868C117.004 29.7774 117.504 29.9227 118.154 29.9227C118.581 29.9227 119.086 29.863 119.667 29.7433V26.8203C119.376 26.8031 119.167 26.7177 119.039 26.5638C118.911 26.4099 118.846 26.1535 118.846 25.7946V21.6151C118.846 19.8203 118.312 18.4484 117.243 17.4997C116.175 16.551 114.675 16.0766 112.743 16.0766C110.743 16.0766 108.88 16.6493 107.154 17.7946L108.205 19.974C108.923 19.4784 109.624 19.1023 110.308 18.8459C110.991 18.5894 111.692 18.4612 112.41 18.4612C113.402 18.4612 114.149 18.7005 114.654 19.1792C115.158 19.6578 115.41 20.3415 115.41 21.2305V21.9997C114.966 21.8117 114.457 21.6664 113.885 21.5638C113.312 21.4612 112.726 21.4099 112.128 21.4099C111.291 21.4099 110.521 21.5168 109.82 21.7305C109.12 21.9441 108.517 22.239 108.013 22.6151C107.508 22.9912 107.115 23.4484 106.833 23.9868C106.551 24.5253 106.41 25.1108 106.41 25.7433C106.41 26.3587 106.526 26.9227 106.756 27.4355C106.987 27.9484 107.308 28.3971 107.718 28.7818C108.128 29.1664 108.615 29.4655 109.179 29.6792ZM111.974 27.4871C112.555 27.4871 113.107 27.3846 113.628 27.1794C114.149 26.9743 114.555 26.7008 114.846 26.359C115.222 26.0684 115.41 25.7435 115.41 25.3846V23.8461C115 23.6923 114.555 23.5684 114.077 23.4743C113.598 23.3803 113.137 23.3333 112.692 23.3333C111.803 23.3333 111.077 23.5341 110.513 23.9359C109.949 24.3375 109.667 24.8461 109.667 25.4614C109.667 26.0427 109.889 26.5255 110.333 26.9103C110.778 27.2948 111.325 27.4871 111.974 27.4871ZM126.948 29.3075C127.752 29.7691 128.667 29.9999 129.692 29.9999C130.581 29.9999 131.411 29.8204 132.18 29.4614C132.948 29.1024 133.615 28.611 134.18 27.9871C134.743 27.3631 135.183 26.6324 135.5 25.7947C135.816 24.9571 135.974 24.0512 135.974 23.0768C135.974 22.1366 135.833 21.2392 135.552 20.3845C135.269 19.5298 134.867 18.7863 134.346 18.1537C133.825 17.5212 133.205 17.017 132.487 16.6408C131.769 16.2648 130.974 16.0768 130.102 16.0768C129.06 16.0768 128.149 16.3033 127.372 16.7563C126.594 17.2093 125.966 17.846 125.487 18.6665V11.0255H122.052V29.7434H125.052V27.4101C125.513 28.2135 126.145 28.846 126.948 29.3075ZM128.743 27.0767C129.291 27.0767 129.795 26.9699 130.256 26.7563C130.718 26.5426 131.111 26.2563 131.435 25.8973C131.761 25.5383 132.013 25.1195 132.192 24.6408C132.372 24.1623 132.461 23.6494 132.461 23.1024C132.461 22.5554 132.376 22.034 132.205 21.5383C132.034 21.0426 131.791 20.6067 131.474 20.2306C131.158 19.8545 130.786 19.5554 130.359 19.3332C129.932 19.111 129.461 18.9998 128.948 18.9998C128.18 18.9998 127.492 19.252 126.885 19.7563C126.278 20.2605 125.812 20.8801 125.487 21.6152V24.8204C125.607 25.1623 125.782 25.4699 126.013 25.7434C126.243 26.017 126.505 26.252 126.795 26.4486C127.086 26.6451 127.401 26.799 127.743 26.9101C128.086 27.0212 128.419 27.0767 128.743 27.0767ZM141.718 11.0255H138.282V26.6408C138.282 27.7007 138.576 28.517 139.167 29.0897C139.756 29.6623 140.589 29.9486 141.667 29.9486C142.162 29.9486 142.718 29.8887 143.333 29.7691C143.948 29.6494 144.487 29.4785 144.948 29.2563L144.487 26.6408C144.265 26.7434 144.029 26.829 143.782 26.8973C143.534 26.9657 143.308 26.9999 143.102 26.9999C142.658 26.9999 142.316 26.8631 142.076 26.5897C141.838 26.3161 141.718 25.9315 141.718 25.4358V11.0255ZM152.667 29.9997C151.589 29.9997 150.615 29.8159 149.743 29.4484C148.872 29.0808 148.128 28.5808 147.513 27.9484C146.898 27.3159 146.423 26.5808 146.089 25.7433C145.756 24.9057 145.589 24.0253 145.589 23.1023C145.589 22.145 145.752 21.2433 146.076 20.3971C146.401 19.551 146.872 18.8074 147.487 18.1664C148.102 17.5253 148.851 17.0168 149.731 16.6407C150.611 16.2646 151.598 16.0766 152.692 16.0766C153.786 16.0766 154.765 16.2646 155.628 16.6407C156.492 17.0168 157.226 17.5211 157.833 18.1535C158.44 18.786 158.901 19.5211 159.218 20.3587C159.534 21.1963 159.692 22.068 159.692 22.974C159.692 23.1963 159.688 23.4099 159.679 23.6151C159.671 23.8203 159.649 23.9912 159.615 24.1279H149.231C149.282 24.6578 149.411 25.1279 149.615 25.5381C149.82 25.9484 150.086 26.2988 150.411 26.5894C150.735 26.88 151.102 27.1023 151.513 27.2561C151.923 27.4099 152.351 27.4868 152.795 27.4868C153.479 27.4868 154.123 27.3203 154.731 26.9868C155.338 26.6535 155.752 26.2134 155.974 25.6664L158.923 26.4868C158.427 27.5125 157.636 28.3544 156.552 29.0125C155.466 29.6706 154.171 29.9997 152.667 29.9997ZM155.039 19.4743C155.696 20.0811 156.068 20.8887 156.154 21.8973H149.18C149.214 21.4015 149.329 20.9486 149.526 20.5383C149.722 20.128 149.974 19.7777 150.282 19.4871C150.589 19.1964 150.945 18.9699 151.346 18.8075C151.748 18.6452 152.18 18.5639 152.641 18.5639C153.581 18.5639 154.38 18.8673 155.039 19.4743Z" fill="#1D1D21"/>
<path fill-rule="evenodd" clip-rule="evenodd" d="M17.494 37.0225C16.6205 38.4053 14.6041 38.4063 13.7292 37.0243L2.16449 18.7586C1.22556 17.2755 2.2911 15.3398 4.04633 15.3398H15.6054L15.6114 3.33927C15.6123 1.49476 17.1079 0 18.9523 0H36.8403C38.5946 0 39.6602 1.93376 38.7233 3.41685L17.494 37.0225Z" fill="#6CEECB"/>
<mask id="mask0_2394_8471" style="mask-type:alpha" maskUnits="userSpaceOnUse" x="1" y="0" width="39" height="39">
<path fill-rule="evenodd" clip-rule="evenodd" d="M17.494 37.0225C16.6205 38.4053 14.6041 38.4063 13.7292 37.0243L2.16449 18.7586C1.22556 17.2755 2.2911 15.3398 4.04633 15.3398H15.6054L15.6114 3.33927C15.6123 1.49476 17.1079 0 18.9523 0H36.8403C38.5946 0 39.6602 1.93376 38.7233 3.41685L17.494 37.0225Z" fill="white"/>
</mask>
<g mask="url(#mask0_2394_8471)">
<path d="M15.6131 15.3398H1.61377V39.6117H15.6131V15.3398Z" fill="#35BC98"/>
<path fill-rule="evenodd" clip-rule="evenodd" d="M10.9521 15.3398H15.6131V39.6117L10.9521 15.3398Z" fill="#1C9172"/>
</g>
</svg>
